<svg id="visual" viewBox="0 0 1920 1080" width="1920" height="1080" xmlns="http://www.w3.org/2000/svg" xmlns:xlink="http://www.w3.org/1999/xlink" version="1.1"><path d="M0 206L64 216.8C128 227.7 256 249.3 384 256.5C512 263.7 640 256.3 768 247.3C896 238.3 1024 227.7 1152 224.2C1280 220.7 1408 224.3 1536 220.7C1664 217 1792 206 1856 200.5L1920 195L1920 0L1856 0C1792 0 1664 0 1536 0C1408 0 1280 0 1152 0C1024 0 896 0 768 0C640 0 512 0 384 0C256 0 128 0 64 0L0 0Z" fill="#f94699"></path><path d="M0 357L64 364.3C128 371.7 256 386.3 384 381C512 375.7 640 350.3 768 335.8C896 321.3 1024 317.7 1152 314C1280 310.3 1408 306.7 1536 299.5C1664 292.3 1792 281.7 1856 276.3L1920 271L1920 193L1856 198.5C1792 204 1664 215 1536 218.7C1408 222.3 1280 218.7 1152 222.2C1024 225.7 896 236.3 768 245.3C640 254.3 512 261.7 384 254.5C256 247.3 128 225.7 64 214.8L0 204Z" fill="#fa3f94"></path><path d="M0 487L64 488.8C128 490.7 256 494.3 384 483.5C512 472.7 640 447.3 768 431.2C896 415 1024 408 1152 417C1280 426 1408 451 1536 461.7C1664 472.3 1792 468.7 1856 466.8L1920 465L1920 269L1856 274.3C1792 279.7 1664 290.3 1536 297.5C1408 304.7 1280 308.3 1152 312C1024 315.7 896 319.3 768 333.8C640 348.3 512 373.7 384 379C256 384.3 128 369.7 64 362.3L0 355Z" fill="#fb388e"></path><path d="M0 714L64 694.2C128 674.3 256 634.7 384 607.7C512 580.7 640 566.3 768 553.7C896 541 1024 530 1152 535.3C1280 540.7 1408 562.3 1536 584C1664 605.7 1792 627.3 1856 638.2L1920 649L1920 463L1856 464.8C1792 466.7 1664 470.3 1536 459.7C1408 449 1280 424 1152 415C1024 406 896 413 768 429.2C640 445.3 512 470.7 384 481.5C256 492.3 128 488.7 64 486.8L0 485Z" fill="#fc2f89"></path><path d="M0 822L64 793.2C128 764.3 256 706.7 384 676C512 645.3 640 641.7 768 638C896 634.3 1024 630.7 1152 641.5C1280 652.3 1408 677.7 1536 697.5C1664 717.3 1792 731.7 1856 738.8L1920 746L1920 647L1856 636.2C1792 625.3 1664 603.7 1536 582C1408 560.3 1280 538.7 1152 533.3C1024 528 896 539 768 551.7C640 564.3 512 578.7 384 605.7C256 632.7 128 672.3 64 692.2L0 712Z" fill="#fd2583"></path><path d="M0 876L64 859.8C128 843.7 256 811.3 384 793.3C512 775.3 640 771.7 768 757.2C896 742.7 1024 717.3 1152 726.3C1280 735.3 1408 778.7 1536 802.2C1664 825.7 1792 829.3 1856 831.2L1920 833L1920 744L1856 736.8C1792 729.7 1664 715.3 1536 695.5C1408 675.7 1280 650.3 1152 639.5C1024 628.7 896 632.3 768 636C640 639.7 512 643.3 384 674C256 704.7 128 762.3 64 791.2L0 820Z" fill="#fd187d"></path><path d="M0 1081L64 1081C128 1081 256 1081 384 1081C512 1081 640 1081 768 1081C896 1081 1024 1081 1152 1081C1280 1081 1408 1081 1536 1081C1664 1081 1792 1081 1856 1081L1920 1081L1920 831L1856 829.2C1792 827.3 1664 823.7 1536 800.2C1408 776.7 1280 733.3 1152 724.3C1024 715.3 896 740.7 768 755.2C640 769.7 512 773.3 384 791.3C256 809.3 128 841.7 64 857.8L0 874Z" fill="#fe0077"></path></svg>